<svg width="28" height="28" xmlns="http://www.w3.org/2000/svg" xmlns:xlink="http://www.w3.org/1999/xlink" xml:space="preserve" overflow="hidden"><g transform="translate(-592 -312)"><path d="M605.994 314.917C599.876 314.917 594.916 319.876 594.916 325.994 594.916 332.112 599.875 337.072 605.993 337.072 612.111 337.072 617.071 332.112 617.071 325.994 617.071 325.994 617.071 325.994 617.071 325.993 617.073 319.878 612.118 314.919 606.003 314.917 606 314.917 605.997 314.917 605.994 314.917ZM607.14 331.972C607.017 332.261 606.787 332.49 606.498 332.614 606.35 332.677 606.19 332.709 606.029 332.708 605.707 332.709 605.398 332.582 605.17 332.355 605.06 332.244 604.972 332.114 604.911 331.971 604.847 331.823 604.815 331.663 604.816 331.501 604.815 331.179 604.943 330.87 605.17 330.642 605.642 330.169 606.407 330.168 606.88 330.64 606.881 330.64 606.882 330.641 606.883 330.642L606.883 330.642C606.993 330.753 607.081 330.884 607.142 331.029 607.205 331.178 607.237 331.339 607.237 331.501 607.237 331.663 607.204 331.823 607.14 331.972ZM608.17 326.85C607.373 327.331 606.881 328.189 606.869 329.119L605.119 329.119C605.129 327.587 605.931 326.169 607.238 325.369 608.334 324.682 608.666 323.237 607.979 322.141 607.292 321.045 605.846 320.713 604.75 321.4 604.067 321.829 603.652 322.579 603.652 323.386L601.902 323.386C601.901 321.126 603.733 319.293 605.993 319.292 608.253 319.291 610.085 321.123 610.086 323.383 610.087 324.791 609.363 326.101 608.17 326.85Z" fill="#7F7F7F"/></g></svg>